<svg xmlns="http://www.w3.org/2000/svg" viewBox="0 0 448 512">
  <path d="M388.32 104.1a4.66 4.66 0 0 0-4.4-4c-2 0-37.23-.8-37.23-.8s-21.61-20.82-29.62-28.83V503.2L442.76 472S388.72 106.5 388.32 104.1z" fill="#5E8E3E"/>
  <path d="M288.65 70.47a116.67 116.67 0 0 0-7.21-17.61C271 36 258.64 28 244.84 28h-1.42c-3.73-4.7-8.41-6.8-12.49-6.8-43.51 1.61-65 56-72.81 84.81-20.21 6.4-34.41 10.81-36.41 11.61-11.21 3.6-11.61 4-13 14.41-1.2 7.61-30.42 234-30.42 234L317.07 403V66.87a83.93 83.93 0 0 0-28.42 3.6zM243.44 93.68c-12 3.6-25.22 8-38.83 12.01 7.61-29.22 21.61-43.51 40.42-47.52a67.3 67.3 0 0 1 6 23.51c0 4.01-.4 8.01-1.6 12.01h-6zm-30.82-67.22c3.21 0 6 1.2 8.81 3.21-19.22 9.21-39.63 32.42-48.44 78.84-10.8 3.2-21.61 6.8-31.62 10.01 8.81-30.02 30.02-91.66 71.25-92.06zm-9.61 220.05s-13.21-7.21-29.62-7.21c-24 1.6-24 15.21-24 18.81.8 19.22 51.63 23.62 54.43 69.24 2.4 35.62-18.81 60.04-49.63 62.04-36.82 2.4-57.24-19.62-57.24-19.62l8.01-33.22s20.42 15.21 36.82 14.41c10.81-.4 14.81-12.01 14.81-19.62-1.6-25.22-42.42-23.62-45.23-65.24-2-34.82 20.82-70.44 72.04-73.64 19.62-1.2 30.02 3.6 30.02 3.6z" fill="#95BF47"/>
</svg>
